<svg width="51" height="50" viewBox="0 0 51 50" fill="none" xmlns="http://www.w3.org/2000/svg">
<circle cx="25.9902" cy="25" r="25" fill="#E5E5E5"/>
<mask id="mask0_5_10253" style="mask-type:alpha" maskUnits="userSpaceOnUse" x="0" y="0" width="51" height="50">
<circle cx="25.9902" cy="25" r="25" fill="white"/>
</mask>
<g mask="url(#mask0_5_10253)">
<path d="M12.7449 48.6291C13.438 47.3239 15.0581 46.8277 16.3633 47.5208C17.6686 48.214 18.1648 49.834 17.4716 51.1393C16.5635 52.8494 15.8562 55.6191 15.5855 58.5214L15.5774 58.6094C15.321 61.4538 15.528 64.0143 16.0771 65.3533L16.0939 65.3935C16.6697 66.7546 16.0331 68.3248 14.672 68.9007C13.3109 69.4765 11.7407 68.8399 11.1649 67.4788C9.2461 62.9434 10.0849 53.6381 12.7449 48.6291Z" fill="#EBBAAA"/>
<path d="M36.5103 44.1287C37.9258 43.7041 39.4177 44.5074 39.8423 45.9229C42.18 53.7151 42.6701 64.4889 41.084 68.6843C40.5614 70.0667 39.0171 70.7637 37.6347 70.2411C36.2661 69.7237 35.5693 68.2049 36.0626 66.8332L36.0779 66.7917C36.5189 65.6253 36.7585 62.6394 36.5991 59.1369C36.4173 55.1407 35.7662 50.9611 34.7161 47.4608C34.2914 46.0452 35.0947 44.5534 36.5103 44.1287Z" fill="#EBBAAA"/>
<path d="M14.4971 43.7016C14.4971 42.0669 18.2218 40.3986 20.8254 39.6052L24.2246 38.5204C24.698 38.5061 27.9504 38.6361 28.4194 38.6985L33.699 40.3986C36.2007 40.7312 35.2166 43.3347 34.9647 45.7517L34.5307 54.5751L33.699 67.1956C33.7042 67.3218 31.3712 69.3414 31.24 69.335L21.2955 68.7284L15.9074 68.4954C15.7814 68.4889 15.7161 68.1345 15.7266 68.0133L16.4503 53.5362L14.4971 43.7016Z" fill="#EBBAAA"/>
<path d="M39.1045 41.8551C38.4391 41.2152 36.2477 40.5682 35.2352 40.3248C33.5906 58.1189 29.0342 59.3484 42.4864 56.8894C42.4864 54.7282 39.9362 42.655 39.1045 41.8551Z" fill="#DDD2C4"/>
<path d="M14.1832 42.0279C14.8061 41.3885 16.8575 40.742 17.8053 40.4987C17.2073 48.7006 18.2577 57.5019 18.0411 58.336C17.7703 59.3786 13.9901 58.4637 13.4485 58.0467C12.9069 57.6296 9.80542 59.2612 9.94083 57.1065C10.0762 54.9517 13.4046 42.8273 14.1832 42.0279Z" fill="#DDD2C4"/>
<path d="M25.3996 44.6724C25.038 43.6638 25.2188 42.2725 25.2188 42.2725L23.5915 42.7943L21.6388 39.1423C19.3847 39.5249 19.2883 39.664 17.661 40.3596C15.7198 41.1894 16.106 43.9768 15.8167 47.7679V59.4208L15.4189 68.532L20.7709 69.3319L26.5756 70.0524L25.942 45.8202C25.942 45.8202 25.7612 45.6811 25.3996 44.6724Z" fill="#DED4C9"/>
<path d="M26.7738 44.6376C25.8336 43.9072 25.9904 43.3275 26.1591 42.7594L26.4846 42.5507L28.8712 42.2725L31.1133 39.3509C31.1133 39.3509 34.3317 39.7683 35.4165 40.3248C36.5014 40.8812 36.0501 55.226 36.0501 55.226L36.701 69.1121L32.7956 69.5461L25.6167 70.7126C25.5973 69.2487 24.2986 66.0991 24.3236 64.1476C24.4229 56.3936 24.8675 47.3493 25.6167 46.9679C26.8462 46.3419 26.9908 44.8062 26.7738 44.6376Z" fill="#E4DBD0"/>
<path d="M29.1603 40.3247C29.4091 39.5334 29.1603 38.9683 29.088 38.6205L31.1131 39.3509C31.1131 39.3509 31.8002 40.1856 31.3662 42.0986C30.8908 44.1942 28.7884 45.0202 28.2925 45.5766C28.0755 45.8201 28.1478 42.8638 26.4844 42.5507C27.2438 42.3768 28.6902 41.8203 29.1603 40.3247Z" fill="#DDD2C4"/>
<path d="M23.3782 40.7422C22.8682 40.0466 23.1326 39.0709 23.3782 38.551L21.6025 39.1423C21.6025 39.1423 20.5814 40.8332 21.1334 42.4674C21.8195 44.4985 24.2636 45.2325 24.2423 44.9855C24.0253 42.4674 24.8923 42.5613 25.2548 42.2378C24.6401 42.0986 24.056 41.6666 23.3782 40.7422Z" fill="#E4DBD0"/>
<path d="M28.9436 44.6028C29.1434 44.6028 29.3053 44.4471 29.3053 44.255C29.3053 44.0629 29.1434 43.9072 28.9436 43.9072C28.7439 43.9072 28.582 44.0629 28.582 44.255C28.582 44.4471 28.7439 44.6028 28.9436 44.6028Z" fill="#E5EBF9"/>
<path d="M26.1049 48.2769C26.4045 48.2769 26.6474 48.0433 26.6474 47.7552C26.6474 47.4671 26.4045 47.2335 26.1049 47.2335C25.8054 47.2335 25.5625 47.4671 25.5625 47.7552C25.5625 48.0433 25.8054 48.2769 26.1049 48.2769Z" fill="#EDF2FF"/>
<path d="M18.4511 40.0239C18.9373 42.617 18.8051 52.6185 18.0843 65.3731L18.0395 66.1574L15.1514 65.9902L15.1952 65.2232C15.8929 52.8745 16.0297 43.0252 15.6205 40.6287L15.6077 40.557L18.4511 40.0239Z" fill="#999999"/>
<path d="M35.6896 29.4211C38.0569 29.4211 39.976 27.5753 39.976 25.2984C39.976 23.0215 38.0569 21.1758 35.6896 21.1758C33.3224 21.1758 31.4033 23.0215 31.4033 25.2984C31.4033 27.5753 33.3224 29.4211 35.6896 29.4211Z" fill="#EBBAAA"/>
<path d="M17.5256 29.4211C15.1583 29.4211 13.2393 27.5753 13.2393 25.2984C13.2393 23.0215 15.1583 21.1758 17.5256 21.1758C19.8929 21.1758 21.812 23.0215 21.812 25.2984C21.812 27.5753 19.8929 29.4211 17.5256 29.4211Z" fill="#EBBAAA"/>
<path d="M15.2021 19.3737C15.2021 13.2918 20.1325 8.36136 26.2144 8.36136C32.3657 8.36136 37.3243 13.4005 37.2253 19.5509L37.0608 29.7702C36.9711 35.3372 32.4327 39.8031 26.865 39.8031C20.8422 39.8031 15.8618 35.1116 15.5022 29.0996L15.2021 24.0822V19.3737Z" fill="#F4D4C9"/>
<path d="M28.751 31.9287C29.0357 31.8123 29.3608 31.9486 29.4773 32.2333C29.5937 32.5179 29.4574 32.8431 29.1727 32.9595C27.3686 33.6976 25.6964 33.718 24.2797 32.9309C24.0108 32.7816 23.914 32.4425 24.0633 32.1737C24.2127 31.9048 24.5517 31.808 24.8206 31.9573C25.9127 32.5641 27.2374 32.5479 28.751 31.9287Z" fill="#C99584"/>
<path d="M14.7878 18.4848C14.7685 18.0905 15.1462 17.7625 15.6188 17.7625C16.1093 17.7625 16.1353 21.8394 16.0889 22.2466L15.6636 25.42C15.6505 25.5354 15.5346 25.623 15.3964 25.623C15.252 25.623 15.1338 25.5283 15.1276 25.4084L14.7878 22.789V18.4848Z" fill="#575757"/>
<path d="M38.0484 17.8561C38.0885 17.4649 37.7341 17.1202 37.2687 17.0972C36.7859 17.0732 36.3892 17.4044 36.4131 17.8117L36.8164 24.7119C36.8232 24.8273 36.9326 24.9201 37.0687 24.9268C37.2109 24.9339 37.3323 24.8455 37.3447 24.7265L38.0484 17.8561Z" fill="#575757"/>
<path d="M30.8601 24.1186C31.332 24.1186 31.716 24.4953 31.7277 24.9644L31.728 24.9865V25.8409C31.728 26.3202 31.3394 26.7087 30.8601 26.7087C30.3881 26.7087 30.0042 26.332 29.9925 25.8629L29.9922 25.8409V24.9865C29.9922 24.5072 30.3808 24.1186 30.8601 24.1186Z" fill="black"/>
<path d="M21.82 23.9016C22.292 23.9016 22.6759 24.2783 22.6876 24.7475L22.6879 24.7695V25.6239C22.6879 26.1032 22.2993 26.4918 21.82 26.4918C21.3481 26.4918 20.9641 26.1151 20.9524 25.6459L20.9521 25.6239V24.7695C20.9521 24.2902 21.3407 23.9016 21.82 23.9016Z" fill="black"/>
<path d="M32.9088 20.1271C33.3075 20.1021 33.6509 20.405 33.6759 20.8037C33.7005 21.1956 33.4082 21.5341 33.0195 21.5692L32.9994 21.5708L28.8632 21.8301C28.4646 21.8551 28.1212 21.5522 28.0962 21.1536C28.0716 20.7617 28.3639 20.4231 28.7525 20.388L28.7727 20.3865L32.9088 20.1271Z" fill="#393939"/>
<path d="M19.6611 20.345L23.8012 20.5095C24.2003 20.5254 24.511 20.8618 24.4952 21.2609C24.4796 21.6533 24.1542 21.9602 23.764 21.9554L23.7438 21.9549L19.6037 21.7903C19.2046 21.7745 18.8939 21.4381 18.9098 21.0389C18.9254 20.6466 19.2507 20.3397 19.6409 20.3445L19.6611 20.345Z" fill="#393939"/>
<path d="M25.8203 25.5955L26.9276 26.1299C26.4403 27.1399 26.1627 28.1112 26.1784 28.782C26.1919 29.3619 26.3736 29.5808 26.875 29.5872L26.898 29.5874V30.8169C25.6609 30.8169 24.9775 30.0255 24.9492 28.8107C24.9286 27.9266 25.2452 26.8029 25.7927 25.6531L25.8203 25.5955Z" fill="#EBBAAA"/>
<path d="M15.4884 13.0567C16.3273 11.3316 18.4657 10.5757 19.3577 10.2743L22.3591 11.5611C20.551 10.7859 19.0611 12.2081 17.875 14.2393C16.6889 16.2705 16.173 20.4264 16.0886 22.2466C16.0886 22.2466 15.7415 22.6736 15.5245 22.6562C15.3076 22.6388 15.0868 25.1855 14.7868 22.7851C14.4868 20.3846 14.6494 14.7818 15.4884 13.0567Z" fill="#575757"/>
<path d="M38.3619 16.0988C37.2463 8.94973 32.7118 8.27599 30.4805 7.56482C30.4805 7.56482 32.622 13.4852 34.7094 15.003C36.7967 16.5207 36.7967 22.8251 36.7967 22.8251L36.8012 22.8187C38.3629 20.6053 38.9379 19.7904 38.3619 16.0988Z" fill="#575757"/>
<path d="M26.0694 15.3188C28.4416 15.3188 31.4575 13.5914 32.1084 12.5711L27.2627 10.2408L19.7049 10.6582L18.6924 17.0578C20.7898 14.7971 23.6972 15.3188 26.0694 15.3188Z" fill="#181818"/>
<path d="M24.2608 5.25091C31.8547 3.92928 35.254 6.95011 36.1942 8.39656C37.1346 9.84303 37.93 12.6275 36.1942 13.5677C34.9532 14.2399 30.0466 13.3728 26.7197 13.9293C23.3928 14.4858 23.1036 14.7972 20.0298 15.5445C17.8196 16.0819 16.9562 15.8459 15.7266 15.5445C15.7266 12.9428 15.77 11.6765 16.2329 10.3131C16.8115 8.60888 20.2133 5.95533 24.2608 5.25091Z" fill="#181818"/>
<path d="M27.5782 26.3503L27.4434 24.3834C27.4434 24.3834 28.1805 23.0441 31.1423 22.6947C34.1041 22.3451 35.458 23.9017 35.458 23.9017L35.181 26.5097C35.0297 27.9356 33.8075 29.0054 32.3742 28.9669L30.2462 28.9096C28.8302 28.8715 27.6752 27.7635 27.5782 26.3503Z" fill="white" fill-opacity="0.22"/>
<path d="M24.9812 26.1903L25.1284 24.3925C25.1284 24.3925 24.2421 23.0085 21.3327 22.6887C18.4232 22.369 17.1729 23.85 17.1729 23.85L17.4616 26.3526C17.6259 27.7759 18.8559 28.8342 20.2878 28.7842L22.3379 28.7126C23.7312 28.664 24.8674 27.5798 24.9812 26.1903Z" fill="white" fill-opacity="0.22"/>
<path fill-rule="evenodd" clip-rule="evenodd" d="M28.3851 23.3723C29.077 22.9745 29.9812 22.686 31.1251 22.551C32.5617 22.3814 33.7457 22.6285 34.6837 23.1459C34.9418 23.2883 35.1613 23.4411 35.343 23.5946C35.4536 23.688 35.5279 23.762 35.5669 23.8067L35.6082 23.8543L35.3246 26.525C35.1653 28.0259 33.8789 29.152 32.3701 29.1114L30.242 29.0542C28.7516 29.0141 27.5357 27.8477 27.4337 26.3602L27.2959 24.3508L27.3164 24.3136C27.3527 24.2477 27.4296 24.1408 27.5562 24.0071C27.7624 23.7894 28.0358 23.5731 28.3851 23.3723ZM35.1561 23.8156C34.9886 23.6741 34.7847 23.5321 34.5438 23.3992C33.6577 22.9104 32.5341 22.676 31.1588 22.8383C30.0528 22.9688 29.1861 23.2454 28.529 23.6231C28.2043 23.8098 27.953 24.0086 27.7661 24.206C27.7018 24.2739 27.6503 24.3364 27.6104 24.3918L27.6032 24.4019L27.5904 24.4203L27.7221 26.3404C27.813 27.6658 28.8864 28.7079 30.2095 28.7636L30.2496 28.765L32.3777 28.8222C33.7356 28.8588 34.8934 27.8452 35.0368 26.4944L35.3066 23.9529L35.2859 23.9325C35.2553 23.9028 35.2201 23.8706 35.1805 23.8364L35.1561 23.8156Z" fill="black"/>
<path d="M31.0057 22.5297C31.9623 22.406 32.8606 22.4752 33.6904 22.6963C34.3063 22.8605 34.8362 23.0942 35.2721 23.3566C35.5671 23.5343 35.7295 23.8603 35.7183 24.2081L35.7172 24.2324L35.6412 25.599L34.9913 25.5628L35.0673 24.1963C35.0742 24.0718 35.0234 23.9667 34.9363 23.9142C34.5505 23.6819 34.0763 23.4728 33.5228 23.3253C32.7726 23.1254 31.9592 23.0627 31.0892 23.1752C29.5345 23.3763 28.4595 23.8596 27.7881 24.4272C27.7342 24.4728 27.7051 24.5499 27.7113 24.6442L27.7128 24.6621L27.9032 26.4053L27.2562 26.476L27.0658 24.7328C27.0321 24.4252 27.136 24.1262 27.3678 23.9302C28.1337 23.2827 29.3252 22.7471 31.0057 22.5297Z" fill="black"/>
<path fill-rule="evenodd" clip-rule="evenodd" d="M17.2661 23.7194C17.4384 23.5718 17.648 23.4248 17.8962 23.2879C18.789 22.7954 19.9327 22.558 21.3402 22.7127C22.487 22.8388 23.4119 23.1347 24.1369 23.5502C24.4857 23.75 24.7659 23.965 24.9838 24.1811C25.117 24.3132 25.2009 24.4182 25.2419 24.4822L25.2682 24.5234L25.117 26.3699C24.9972 27.8325 23.8013 28.9737 22.3346 29.025L20.2845 29.0966C18.7773 29.1492 17.4825 28.0352 17.3096 26.537L17.0137 23.9723L17.0613 23.916C17.0945 23.8779 17.15 23.8216 17.2283 23.7523L17.2661 23.7194ZM23.9925 23.8012C23.3024 23.4057 22.4158 23.122 21.308 23.0003C19.9605 22.8522 18.8766 23.0772 18.0353 23.5412C17.805 23.6682 17.6115 23.804 17.4538 23.9391C17.3992 23.9859 17.3531 24.029 17.3153 24.0674L17.5965 26.5038C17.7505 27.8387 18.8941 28.8347 20.2332 28.8085L20.2738 28.8074L22.324 28.7358C23.6439 28.6897 24.7203 27.6626 24.8281 26.3462L24.9709 24.6011L24.9658 24.5944L24.9501 24.5744C24.9053 24.5183 24.8487 24.4551 24.7796 24.3865C24.5793 24.1879 24.3191 23.9883 23.9925 23.8012Z" fill="black"/>
<path d="M18.869 22.795C19.6805 22.5727 20.56 22.4984 21.4978 22.612C23.1432 22.8114 24.3156 23.325 25.075 23.9532C25.3042 24.1429 25.4114 24.4329 25.3865 24.7339L25.3839 24.7605L25.1906 26.548L24.5434 26.478L24.7368 24.6904C24.748 24.5872 24.7181 24.5027 24.6601 24.4547C23.9955 23.905 22.9395 23.4424 21.4195 23.2582C20.5681 23.155 19.7732 23.2222 19.0409 23.4228C18.4997 23.5711 18.0363 23.7791 17.659 24.0097C17.5766 24.06 17.5275 24.1577 17.5299 24.2744L17.5306 24.292L17.6155 25.6257L16.9659 25.6671L16.881 24.3333C16.8583 23.9764 17.0187 23.6381 17.3196 23.4543C17.7466 23.1933 18.2656 22.9603 18.869 22.795Z" fill="black"/>
<path d="M24.7578 24.6572C25.6979 24.2095 26.6045 24.1656 27.4868 24.6457L27.5217 24.6649L27.2743 25.1066C26.5495 24.7007 25.813 24.7254 25.0125 25.0969L24.9755 25.1143L24.7578 24.6572Z" fill="black"/>
</g>
</svg>
