<svg width="218" height="36" viewBox="0 0 218 36" fill="none" xmlns="http://www.w3.org/2000/svg">
<path d="M153.516 11.1908H160.105V13.6803H160.178C160.764 12.7284 162.229 10.3854 166.622 10.3854C168.672 10.3854 171.527 11.1176 173.358 14.5589C174.822 12.2891 177.238 10.3854 180.826 10.3854C182.51 10.3854 185.073 10.7515 186.976 12.7284C189.173 15.0714 189.539 16.609 189.539 21.8075V34.6207H182.51V22.1736C182.51 20.2699 182.51 16.9751 178.922 16.9751C175.042 16.9751 175.042 20.5628 175.042 21.8075V34.6207H168.013V21.8807C168.013 20.636 168.013 16.9751 164.498 16.9751C160.545 16.9751 160.545 20.7824 160.545 22.1736V34.6207H153.516V11.1908Z" fill="#F15A4F"/>
<path d="M217.145 27.2989C215.973 29.9347 214.362 31.9849 212.385 33.3028C210.409 34.6939 208.139 35.4261 205.723 35.4261C198.986 35.4261 193.275 29.9347 193.275 22.979C193.275 16.3893 198.401 10.3854 205.576 10.3854C212.751 10.3854 217.95 16.0233 217.95 23.1986C217.95 24.1505 217.877 24.5166 217.804 25.0291H200.231C200.67 27.8114 203.013 29.4954 205.723 29.4954C207.846 29.4954 209.017 28.5436 209.969 27.2989H217.145ZM210.921 20.3431C210.628 18.952 209.237 16.3161 205.576 16.3161C201.915 16.3161 200.524 18.952 200.231 20.3431H210.921Z" fill="#F15A4F"/>
<path d="M31.9001 28.9097C27.6534 28.9097 26.0426 25.1755 26.0426 22.979C26.0426 20.3431 27.7999 16.9019 31.8269 16.9019C35.4146 16.9019 37.3183 19.3913 37.6844 21.9539H44.7866V11.1908H37.7576V13.6803H37.6844C36.8057 12.2159 34.6824 10.3854 30.8018 10.3854C24.5783 10.3854 19.0137 15.2178 19.0137 22.9058C19.0137 29.6419 23.3336 35.4993 30.8018 35.4993C33.5841 35.4993 36.4397 34.4743 37.6844 32.1313H37.7576V34.6939H44.7866V24.1505H37.6112C37.1718 26.347 35.561 28.9097 31.9001 28.9097Z" fill="white"/>
<path d="M15.7195 27.6648H8.03158V3.35629H0.0507812V34.6205H19.8197C17.6964 32.8633 16.1588 30.2274 15.7195 27.6648Z" fill="white"/>
<path d="M56.9411 24.151H49.9121V34.6945H56.9411V24.151Z" fill="white"/>
<path d="M56.9421 21.8083C56.9421 18.2206 59.2118 17.5617 62.5067 17.4884V10.4595C58.4797 10.4595 57.2349 12.5828 56.6492 13.7543H56.576V11.2649H49.9863V22.1012H57.0153V21.8083H56.9421Z" fill="white"/>
<path d="M77.0779 28.9102C73.4902 28.9102 71.8062 26.2744 71.3669 24.151H64.3379C64.8504 30.3746 69.0239 35.4999 76.0528 35.4999C78.8351 35.4999 81.6907 34.4748 82.9354 32.1318H83.0086V34.6945H90.0376V24.151H82.7889C82.3496 26.3476 80.7388 28.9102 77.0779 28.9102Z" fill="white"/>
<path d="M77.0017 16.9751C80.5894 16.9751 82.4931 19.4645 82.8592 22.0272H89.9614V11.1908H82.9324V13.6803H82.8592C81.9806 12.2159 79.8572 10.3854 75.9767 10.3854C69.9728 10.3854 64.701 14.8518 64.2617 22.0272H71.2907C71.6568 19.611 73.4872 16.9751 77.0017 16.9751Z" fill="white"/>
<path d="M102.337 16.5361H105.265V11.1912H102.337V10.2393C102.337 8.26242 103.874 8.04276 104.46 8.04276H105.265V2.77104H104.24C100.799 2.77104 95.3077 3.35678 95.3077 9.94644V11.1912H92.6719V16.5361H95.3077V22.0275H102.337V16.5361Z" fill="#F15A4F"/>
<path d="M102.336 24.151H95.3066V34.6945H102.336V24.151Z" fill="#F15A4F"/>
<path d="M115.369 24.151H108.34V34.6945H115.369V24.151Z" fill="#F15A4F"/>
<path d="M115.368 21.8083C115.368 18.2206 117.638 17.5617 120.932 17.4884V10.4595C116.905 10.4595 115.661 12.5828 115.075 13.7543H115.002V11.2649H108.412V22.1012H115.441V21.8083H115.368Z" fill="#F15A4F"/>
<path d="M141.362 11.1908V13.6803H141.289C140.41 12.2159 138.287 10.3854 134.406 10.3854C128.402 10.3854 123.131 14.8518 122.691 22.0272H129.72C130.086 19.6109 131.917 16.9751 135.431 16.9751C139.385 16.9751 141.362 20.1235 141.362 22.9058C141.362 25.1755 139.898 28.9097 135.505 28.9097C131.917 28.9097 130.233 26.2738 129.794 24.1505H122.765C123.277 30.374 127.451 35.4993 134.48 35.4993C137.262 35.4993 140.117 34.4743 141.362 32.1313H141.435V34.6939H148.464V11.1908H141.362Z" fill="#F15A4F"/>
<path d="M196.64 20.3425H186.316V25.1017H196.64V20.3425Z" fill="#F15A4F"/>
<path d="M111.709 2.62349C112.368 2.62349 112.807 2.76992 113.173 3.0628C113.466 3.35567 113.686 3.8682 113.686 4.52716V7.96843H112.807V4.60038C112.807 4.16107 112.734 3.79498 112.515 3.57532C112.295 3.35567 112.002 3.28245 111.563 3.28245C110.977 3.28245 110.538 3.42889 110.318 3.79498C110.098 4.16107 109.952 4.60038 109.952 5.25935V8.04165H109.146V2.6967H109.805L109.952 3.42889H110.025C110.172 3.20923 110.318 3.0628 110.464 2.98958C110.611 2.91636 110.831 2.76992 111.05 2.6967C111.197 2.6967 111.416 2.62349 111.709 2.62349Z" fill="white"/>
<path d="M119.105 2.62349C119.544 2.62349 119.91 2.6967 120.276 2.91636C120.569 3.13601 120.862 3.42889 121.008 3.72176C121.155 4.08785 121.301 4.52716 121.301 4.96647V5.479H117.64C117.64 6.13797 117.787 6.57728 118.08 6.87015C118.373 7.16302 118.812 7.38268 119.324 7.38268C119.69 7.38268 119.983 7.38268 120.203 7.30946C120.496 7.23624 120.716 7.16302 121.008 7.01659V7.74877C120.716 7.89521 120.496 7.96843 120.203 8.04165C119.91 8.11486 119.617 8.11486 119.251 8.11486C118.739 8.11486 118.299 8.04165 117.933 7.82199C117.567 7.60233 117.274 7.30946 117.055 6.87015C116.835 6.43084 116.762 5.99153 116.762 5.40578C116.762 4.82004 116.835 4.30751 117.055 3.94142C117.274 3.57532 117.494 3.20923 117.86 2.98958C118.226 2.76992 118.592 2.62349 119.105 2.62349ZM119.105 3.28245C118.665 3.28245 118.299 3.42889 118.08 3.72176C117.86 4.01463 117.64 4.38073 117.64 4.89326H120.423C120.423 4.60038 120.349 4.30751 120.276 4.08785C120.203 3.8682 120.057 3.64854 119.837 3.50211C119.617 3.35567 119.398 3.28245 119.105 3.28245Z" fill="white"/>
<path d="M125.694 5.3332L123.79 2.69734H124.742L126.133 4.74746L127.524 2.69734H128.403L126.572 5.25998L128.476 7.96906H127.524L126.06 5.77251L124.595 7.96906H123.717L125.694 5.3332Z" fill="white"/>
<path d="M133.087 7.45537C133.234 7.45537 133.38 7.45537 133.526 7.45537C133.673 7.45537 133.746 7.38215 133.893 7.38215V8.04111C133.819 8.11433 133.673 8.11433 133.526 8.11433C133.38 8.11433 133.234 8.18755 133.014 8.18755C132.721 8.18755 132.501 8.11433 132.282 8.04111C132.062 7.9679 131.842 7.74824 131.696 7.52859C131.55 7.30893 131.476 6.94284 131.476 6.57675V3.35513H130.744V2.98904L131.476 2.69617L131.769 1.52467H132.282V2.69617H133.819V3.35513H132.282V6.50353C132.282 6.86962 132.355 7.08927 132.501 7.23571C132.648 7.38215 132.867 7.45537 133.087 7.45537Z" fill="white"/>
<path d="M141.876 8.04139H141.07V0.499897H141.876V8.04139Z" fill="white"/>
<path d="M147.366 2.62349C147.806 2.62349 148.172 2.6967 148.538 2.91636C148.831 3.13601 149.124 3.42889 149.27 3.72176C149.417 4.08785 149.563 4.52716 149.563 4.96647V5.479H145.902C145.902 6.13797 146.048 6.57728 146.341 6.87015C146.634 7.16302 147.074 7.38268 147.586 7.38268C147.952 7.38268 148.245 7.38268 148.465 7.30946C148.758 7.23624 148.977 7.16302 149.27 7.01659V7.74877C148.977 7.89521 148.758 7.96843 148.465 8.04165C148.172 8.11486 147.879 8.11486 147.513 8.11486C147 8.11486 146.561 8.04165 146.195 7.82199C145.829 7.60233 145.536 7.30946 145.316 6.87015C145.097 6.43084 145.023 5.99153 145.023 5.40578C145.023 4.82004 145.097 4.30751 145.316 3.94142C145.536 3.57532 145.756 3.20923 146.122 2.98958C146.488 2.76992 146.927 2.62349 147.366 2.62349ZM147.366 3.28245C146.927 3.28245 146.561 3.42889 146.341 3.72176C146.122 4.01463 145.902 4.38073 145.902 4.89326H148.684C148.684 4.60038 148.611 4.30751 148.538 4.08785C148.465 3.8682 148.318 3.64854 148.099 3.50211C147.879 3.35567 147.659 3.28245 147.366 3.28245Z" fill="white"/>
<path d="M153.884 8.04229L151.834 2.69734H152.713L153.884 5.91895C153.957 6.13861 154.031 6.35826 154.104 6.65114C154.177 6.94401 154.25 7.16367 154.25 7.3101C154.323 7.16367 154.323 6.94401 154.47 6.65114C154.543 6.35826 154.616 6.13861 154.689 5.91895L155.861 2.69734H156.74L154.689 8.04229H153.884Z" fill="white"/>
<path d="M161.497 2.62349C161.937 2.62349 162.303 2.6967 162.669 2.91636C162.962 3.13601 163.255 3.42889 163.401 3.72176C163.547 4.08785 163.694 4.52716 163.694 4.96647V5.479H160.033C160.033 6.13797 160.179 6.57728 160.472 6.87015C160.765 7.16302 161.204 7.38268 161.717 7.38268C162.083 7.38268 162.376 7.38268 162.596 7.30946C162.888 7.23624 163.108 7.16302 163.401 7.01659V7.74877C163.108 7.89521 162.888 7.96843 162.596 8.04165C162.303 8.11486 162.01 8.11486 161.644 8.11486C161.131 8.11486 160.692 8.04165 160.326 7.82199C159.96 7.60233 159.667 7.30946 159.447 6.87015C159.228 6.43084 159.154 5.99153 159.154 5.40578C159.154 4.82004 159.228 4.30751 159.447 3.94142C159.667 3.57532 159.886 3.20923 160.253 2.98958C160.619 2.76992 161.058 2.62349 161.497 2.62349ZM161.497 3.28245C161.058 3.28245 160.692 3.42889 160.472 3.72176C160.253 4.01463 160.033 4.38073 160.033 4.89326H162.815C162.815 4.60038 162.742 4.30751 162.669 4.08785C162.596 3.8682 162.449 3.64854 162.229 3.50211C162.01 3.35567 161.79 3.28245 161.497 3.28245Z" fill="white"/>
<path d="M167.649 8.04139H166.844V0.499897H167.649V8.04139Z" fill="white"/>
<path d="M176.29 8.04139H175.484V0.499897H176.29V8.04139Z" fill="white"/>
<path d="M181.778 2.62349C182.437 2.62349 182.877 2.76992 183.17 3.0628C183.463 3.35567 183.609 3.79498 183.609 4.45394V8.04165H183.023L182.877 7.23624H182.804C182.657 7.4559 182.511 7.60233 182.364 7.74877C182.218 7.89521 181.998 7.96843 181.778 8.04165C181.559 8.11486 181.339 8.11486 180.973 8.11486C180.68 8.11486 180.387 8.04165 180.094 7.96843C179.802 7.89521 179.655 7.67555 179.509 7.4559C179.362 7.23624 179.289 6.94337 179.289 6.57728C179.289 6.06475 179.509 5.62544 179.948 5.33257C180.387 5.03969 180.973 4.89326 181.852 4.89326L182.73 4.82004V4.52716C182.73 4.08785 182.657 3.72176 182.437 3.57532C182.218 3.42889 181.998 3.28245 181.632 3.28245C181.339 3.28245 181.12 3.35567 180.827 3.42889C180.534 3.50211 180.314 3.57532 180.094 3.72176L179.875 3.13601C180.094 2.98958 180.387 2.91636 180.68 2.84314C181.046 2.6967 181.412 2.62349 181.778 2.62349ZM182.804 5.40578H181.998C181.339 5.40578 180.9 5.55222 180.607 5.69866C180.314 5.91831 180.168 6.13797 180.168 6.50406C180.168 6.79693 180.241 7.01659 180.461 7.16302C180.68 7.30946 180.9 7.38268 181.193 7.38268C181.632 7.38268 182.071 7.23624 182.364 7.01659C182.657 6.72371 182.804 6.35762 182.804 5.84509V5.40578Z" fill="white"/>
<path d="M189.465 2.62349C189.538 2.62349 189.685 2.62349 189.831 2.62349C189.978 2.62349 190.051 2.62349 190.124 2.6967L190.051 3.42889C189.978 3.42889 189.831 3.35567 189.758 3.35567C189.685 3.35567 189.538 3.35567 189.465 3.35567C189.245 3.35567 189.026 3.42889 188.879 3.50211C188.66 3.57532 188.513 3.72176 188.367 3.8682C188.22 4.01463 188.147 4.23429 188.001 4.45395C187.854 4.6736 187.854 4.89326 187.854 5.18613V8.04165H187.049V2.6967H187.708L187.781 3.64854C187.854 3.42889 188.001 3.28245 188.147 3.13601C188.294 2.98958 188.513 2.84314 188.66 2.76992C188.806 2.6967 189.245 2.62349 189.465 2.62349Z" fill="white"/>
<path d="M194.886 2.62349C195.545 2.62349 195.984 2.76992 196.277 3.0628C196.57 3.35567 196.716 3.79498 196.716 4.45394V8.04165H196.131L195.984 7.23624H195.911C195.765 7.4559 195.618 7.60233 195.472 7.74877C195.325 7.89521 195.106 7.96843 194.886 8.04165C194.666 8.11486 194.447 8.11486 194.08 8.11486C193.788 8.11486 193.495 8.04165 193.202 7.96843C192.909 7.89521 192.763 7.67555 192.616 7.4559C192.47 7.23624 192.396 6.94337 192.396 6.57728C192.396 6.06475 192.616 5.62544 193.055 5.33257C193.495 5.03969 194.081 4.89326 194.959 4.89326L195.838 4.82004V4.52716C195.838 4.08785 195.765 3.72176 195.545 3.57532C195.325 3.42889 195.106 3.28245 194.739 3.28245C194.447 3.28245 194.227 3.35567 193.934 3.42889C193.641 3.50211 193.422 3.57532 193.202 3.72176L192.982 3.13601C193.202 2.98958 193.495 2.91636 193.788 2.84314C194.227 2.6967 194.52 2.62349 194.886 2.62349ZM195.984 5.40578H195.179C194.52 5.40578 194.081 5.55222 193.788 5.69866C193.495 5.91831 193.348 6.13797 193.348 6.50406C193.348 6.79693 193.422 7.01659 193.641 7.16302C193.861 7.30946 194.08 7.38268 194.373 7.38268C194.813 7.38268 195.252 7.23624 195.545 7.01659C195.838 6.72371 195.984 6.35762 195.984 5.84509V5.40578Z" fill="white"/>
<path d="M201.402 8.04229L199.352 2.69734H200.23L201.402 5.91895C201.475 6.13861 201.548 6.35826 201.621 6.65114C201.695 6.94401 201.768 7.16367 201.768 7.3101C201.841 7.16367 201.841 6.94401 201.987 6.65114C202.061 6.35826 202.134 6.13861 202.207 5.91895L203.379 2.69734H204.257L202.207 8.04229H201.402Z" fill="white"/>
<path d="M209.019 2.62349C209.458 2.62349 209.824 2.6967 210.19 2.91636C210.483 3.13601 210.776 3.42889 210.922 3.72176C211.069 4.08785 211.215 4.52716 211.215 4.96647V5.479H207.554C207.554 6.13797 207.701 6.57728 207.994 6.87015C208.287 7.16302 208.726 7.38268 209.238 7.38268C209.605 7.38268 209.897 7.38268 210.117 7.30946C210.41 7.23624 210.63 7.16302 210.922 7.01659V7.74877C210.63 7.89521 210.41 7.96843 210.117 8.04165C209.824 8.11486 209.531 8.11486 209.165 8.11486C208.653 8.11486 208.213 8.04165 207.847 7.82199C207.481 7.60233 207.188 7.30946 206.969 6.87015C206.749 6.43084 206.676 5.99153 206.676 5.40578C206.676 4.82004 206.749 4.30751 206.969 3.94142C207.188 3.57532 207.408 3.20923 207.774 2.98958C208.14 2.76992 208.506 2.62349 209.019 2.62349ZM209.019 3.28245C208.579 3.28245 208.213 3.42889 207.994 3.72176C207.774 4.01463 207.554 4.38073 207.554 4.89326H210.337C210.337 4.60038 210.263 4.30751 210.19 4.08785C210.117 3.8682 209.971 3.64854 209.751 3.50211C209.531 3.35567 209.312 3.28245 209.019 3.28245Z" fill="white"/>
<path d="M215.093 8.04139H214.287V0.499897H215.093V8.04139Z" fill="white"/>
</svg>
