<svg width="61" height="61" viewBox="0 0 61 61" fill="none" xmlns="http://www.w3.org/2000/svg">
<circle cx="30.6641" cy="30.6172" r="30" fill="#D9D9D9"/>
<path d="M36.4004 33.3359C34.5312 33.3359 33.6934 34.3672 30.6641 34.3672C27.5703 34.3672 26.7324 33.3359 24.8633 33.3359C20.0938 33.3359 16.2266 37.2676 16.2266 42.0371V43.6484C16.2266 45.3887 17.5801 46.7422 19.3203 46.7422H42.0078C43.6836 46.7422 45.1016 45.3887 45.1016 43.6484V42.0371C45.1016 37.2676 41.1699 33.3359 36.4004 33.3359ZM42.0078 43.6484H19.3203V42.0371C19.3203 38.9434 21.7695 36.4297 24.8633 36.4297C25.8301 36.4297 27.3125 37.4609 30.6641 37.4609C33.9512 37.4609 35.4336 36.4297 36.4004 36.4297C39.4941 36.4297 42.0078 38.9434 42.0078 42.0371V43.6484ZM30.6641 32.3047C35.7559 32.3047 39.9453 28.1797 39.9453 23.0234C39.9453 17.9316 35.7559 13.7422 30.6641 13.7422C25.5078 13.7422 21.3828 17.9316 21.3828 23.0234C21.3828 28.1797 25.5078 32.3047 30.6641 32.3047ZM30.6641 16.8359C34.0156 16.8359 36.8516 19.6719 36.8516 23.0234C36.8516 26.4395 34.0156 29.2109 30.6641 29.2109C27.248 29.2109 24.4766 26.4395 24.4766 23.0234C24.4766 19.6719 27.248 16.8359 30.6641 16.8359Z" fill="#3C3C4C"/>
</svg>
